%TF.GenerationSoftware,KiCad,Pcbnew,8.0.2*%
%TF.CreationDate,2024-05-17T23:09:10+02:00*%
%TF.ProjectId,pcb,7063622e-6b69-4636-9164-5f7063625858,rev?*%
%TF.SameCoordinates,Original*%
%TF.FileFunction,Paste,Top*%
%TF.FilePolarity,Positive*%
%FSLAX46Y46*%
G04 Gerber Fmt 4.6, Leading zero omitted, Abs format (unit mm)*
G04 Created by KiCad (PCBNEW 8.0.2) date 2024-05-17 23:09:10*
%MOMM*%
%LPD*%
G01*
G04 APERTURE LIST*
G04 Aperture macros list*
%AMRoundRect*
0 Rectangle with rounded corners*
0 $1 Rounding radius*
0 $2 $3 $4 $5 $6 $7 $8 $9 X,Y pos of 4 corners*
0 Add a 4 corners polygon primitive as box body*
4,1,4,$2,$3,$4,$5,$6,$7,$8,$9,$2,$3,0*
0 Add four circle primitives for the rounded corners*
1,1,$1+$1,$2,$3*
1,1,$1+$1,$4,$5*
1,1,$1+$1,$6,$7*
1,1,$1+$1,$8,$9*
0 Add four rect primitives between the rounded corners*
20,1,$1+$1,$2,$3,$4,$5,0*
20,1,$1+$1,$4,$5,$6,$7,0*
20,1,$1+$1,$6,$7,$8,$9,0*
20,1,$1+$1,$8,$9,$2,$3,0*%
%AMFreePoly0*
4,1,29,1.778017,0.779942,1.947107,0.720775,2.098792,0.625465,2.225465,0.498792,2.320775,0.347107,2.379942,0.178017,2.400000,0.000000,2.379942,-0.178017,2.320775,-0.347107,2.225465,-0.498792,2.098792,-0.625465,1.947107,-0.720775,1.778017,-0.779942,1.600000,-0.800000,0.000000,-0.800000,-0.600000,-0.800000,-0.605014,-0.794986,-0.644504,-0.794986,-0.724698,-0.756366,-0.780194,-0.686777,
-0.800000,-0.600000,-0.800000,0.600000,-0.780194,0.686777,-0.724698,0.756366,-0.644504,0.794986,-0.605014,0.794986,-0.600000,0.800000,1.600000,0.800000,1.778017,0.779942,1.778017,0.779942,$1*%
%AMFreePoly1*
4,1,29,0.605014,0.794986,0.644504,0.794986,0.724698,0.756366,0.780194,0.686777,0.800000,0.600000,0.800000,-0.600000,0.780194,-0.686777,0.724698,-0.756366,0.644504,-0.794986,0.605014,-0.794986,0.600000,-0.800000,0.000000,-0.800000,-1.600000,-0.800000,-1.778017,-0.779942,-1.947107,-0.720775,-2.098792,-0.625465,-2.225465,-0.498792,-2.320775,-0.347107,-2.379942,-0.178017,-2.400000,0.000000,
-2.379942,0.178017,-2.320775,0.347107,-2.225465,0.498792,-2.098792,0.625465,-1.947107,0.720775,-1.778017,0.779942,-1.600000,0.800000,0.600000,0.800000,0.605014,0.794986,0.605014,0.794986,$1*%
%AMFreePoly2*
4,1,28,0.178017,0.779942,0.347107,0.720775,0.498792,0.625465,0.625465,0.498792,0.720775,0.347107,0.779942,0.178017,0.800000,0.000000,0.779942,-0.178017,0.720775,-0.347107,0.625465,-0.498792,0.498792,-0.625465,0.347107,-0.720775,0.178017,-0.779942,0.000000,-0.800000,-2.200000,-0.800000,-2.205014,-0.794986,-2.244504,-0.794986,-2.324698,-0.756366,-2.380194,-0.686777,-2.400000,-0.600000,
-2.400000,0.600000,-2.380194,0.686777,-2.324698,0.756366,-2.244504,0.794986,-2.205014,0.794986,-2.200000,0.800000,0.000000,0.800000,0.178017,0.779942,0.178017,0.779942,$1*%
G04 Aperture macros list end*
%ADD10RoundRect,0.250000X-0.350000X-0.450000X0.350000X-0.450000X0.350000X0.450000X-0.350000X0.450000X0*%
%ADD11RoundRect,0.250000X-0.325000X-0.450000X0.325000X-0.450000X0.325000X0.450000X-0.325000X0.450000X0*%
%ADD12RoundRect,0.250000X0.325000X0.450000X-0.325000X0.450000X-0.325000X-0.450000X0.325000X-0.450000X0*%
%ADD13RoundRect,0.800000X-0.000010X0.800000X-0.000010X-0.800000X0.000010X-0.800000X0.000010X0.800000X0*%
%ADD14FreePoly0,270.000000*%
%ADD15FreePoly1,270.000000*%
%ADD16FreePoly2,270.000000*%
%ADD17RoundRect,0.250000X0.450000X-0.350000X0.450000X0.350000X-0.450000X0.350000X-0.450000X-0.350000X0*%
%ADD18RoundRect,0.250000X-0.450000X0.350000X-0.450000X-0.350000X0.450000X-0.350000X0.450000X0.350000X0*%
%ADD19RoundRect,0.250000X0.300000X0.300000X-0.300000X0.300000X-0.300000X-0.300000X0.300000X-0.300000X0*%
G04 APERTURE END LIST*
D10*
%TO.C,R2*%
X123165000Y-59690000D03*
X125165000Y-59690000D03*
%TD*%
D11*
%TO.C,D9*%
X97790000Y-74930000D03*
X95740000Y-74930000D03*
%TD*%
D10*
%TO.C,R30*%
X69580000Y-58420000D03*
X67580000Y-58420000D03*
%TD*%
D12*
%TO.C,RST_I*%
X69605000Y-60960000D03*
X67555000Y-60960000D03*
%TD*%
D13*
%TO.C,U1*%
X91440000Y-54140000D03*
X88900000Y-54140000D03*
D14*
X86360000Y-53340000D03*
D13*
X83820000Y-54140000D03*
X81280000Y-54140000D03*
X78740000Y-54140000D03*
X76200000Y-54140000D03*
D14*
X73660000Y-53340000D03*
D13*
X71120000Y-54140000D03*
X68580000Y-54140000D03*
X66040000Y-54140000D03*
X63500000Y-54140000D03*
D14*
X60960000Y-53340000D03*
D13*
X58420000Y-54140000D03*
X55880000Y-54140000D03*
X53340000Y-54140000D03*
X50800000Y-54140000D03*
D14*
X48260000Y-53340000D03*
D13*
X45720000Y-54140000D03*
X43180000Y-54140000D03*
X43180000Y-34760000D03*
X45720000Y-34760000D03*
D15*
X48260000Y-35560000D03*
D13*
X50800000Y-34760000D03*
X53340000Y-34760000D03*
X55880000Y-34760000D03*
X58420000Y-34760000D03*
D15*
X60960000Y-35560000D03*
D13*
X63500000Y-34760000D03*
X66040000Y-34760000D03*
X68580000Y-34760000D03*
X71120000Y-34760000D03*
D15*
X73660000Y-35560000D03*
D13*
X76200000Y-34760000D03*
X78740000Y-34760000D03*
X81280000Y-34760000D03*
X83820000Y-34760000D03*
D15*
X86360000Y-35560000D03*
D13*
X88900000Y-34760000D03*
D16*
X91440000Y-35560000D03*
%TD*%
D11*
%TO.C,D11*%
X97790000Y-81280000D03*
X95740000Y-81280000D03*
%TD*%
D10*
%TO.C,R3*%
X126975000Y-62230000D03*
X128975000Y-62230000D03*
%TD*%
%TO.C,R7*%
X126975000Y-72390000D03*
X128975000Y-72390000D03*
%TD*%
%TO.C,R9*%
X126975000Y-77470000D03*
X128975000Y-77470000D03*
%TD*%
%TO.C,R6*%
X123165000Y-69850000D03*
X125165000Y-69850000D03*
%TD*%
%TO.C,R25*%
X91440000Y-81280000D03*
X93440000Y-81280000D03*
%TD*%
D11*
%TO.C,D5*%
X95740000Y-62230000D03*
X97790000Y-62230000D03*
%TD*%
D17*
%TO.C,R16*%
X103505000Y-54070000D03*
X103505000Y-52070000D03*
%TD*%
D11*
%TO.C,D13*%
X97790000Y-93980000D03*
X95740000Y-93980000D03*
%TD*%
D10*
%TO.C,R18*%
X91345000Y-59055000D03*
X93345000Y-59055000D03*
%TD*%
D11*
%TO.C,D8*%
X95740000Y-71755000D03*
X97790000Y-71755000D03*
%TD*%
D12*
%TO.C,FMT*%
X74685000Y-60960000D03*
X72635000Y-60960000D03*
%TD*%
D18*
%TO.C,R34*%
X81280000Y-61500000D03*
X81280000Y-63500000D03*
%TD*%
D10*
%TO.C,R27*%
X91345000Y-93980000D03*
X93345000Y-93980000D03*
%TD*%
%TO.C,R19*%
X91345000Y-62230000D03*
X93345000Y-62230000D03*
%TD*%
%TO.C,R31*%
X67850000Y-67945000D03*
X69850000Y-67945000D03*
%TD*%
D12*
%TO.C,RST_O*%
X69605000Y-64770000D03*
X67555000Y-64770000D03*
%TD*%
D11*
%TO.C,D15*%
X95740000Y-87630000D03*
X97790000Y-87630000D03*
%TD*%
D10*
%TO.C,R5*%
X126975000Y-67310000D03*
X128975000Y-67310000D03*
%TD*%
D11*
%TO.C,D10*%
X95740000Y-78105000D03*
X97790000Y-78105000D03*
%TD*%
%TO.C,D12*%
X97790000Y-84455000D03*
X95740000Y-84455000D03*
%TD*%
D10*
%TO.C,R1*%
X126975000Y-57150000D03*
X128975000Y-57150000D03*
%TD*%
D12*
%TO.C,POWER*%
X79230000Y-58420000D03*
X81280000Y-58420000D03*
%TD*%
D10*
%TO.C,R24*%
X91345000Y-78105000D03*
X93345000Y-78105000D03*
%TD*%
%TO.C,R28*%
X91345000Y-90805000D03*
X93345000Y-90805000D03*
%TD*%
%TO.C,R29*%
X91345000Y-87630000D03*
X93345000Y-87630000D03*
%TD*%
%TO.C,R21*%
X91345000Y-68580000D03*
X93345000Y-68580000D03*
%TD*%
%TO.C,R20*%
X91345000Y-65405000D03*
X93345000Y-65405000D03*
%TD*%
D11*
%TO.C,D2*%
X95740000Y-52705000D03*
X97790000Y-52705000D03*
%TD*%
D10*
%TO.C,R10*%
X123165000Y-80010000D03*
X125165000Y-80010000D03*
%TD*%
%TO.C,R26*%
X91345000Y-84455000D03*
X93345000Y-84455000D03*
%TD*%
%TO.C,R33*%
X72660000Y-67945000D03*
X74660000Y-67945000D03*
%TD*%
%TO.C,R4*%
X123165000Y-64770000D03*
X125165000Y-64770000D03*
%TD*%
%TO.C,R11*%
X126975000Y-82550000D03*
X128975000Y-82550000D03*
%TD*%
D11*
%TO.C,D4*%
X95740000Y-59055000D03*
X97790000Y-59055000D03*
%TD*%
D12*
%TO.C,LANG*%
X74685000Y-64770000D03*
X72635000Y-64770000D03*
%TD*%
D10*
%TO.C,R22*%
X91345000Y-71755000D03*
X93345000Y-71755000D03*
%TD*%
D18*
%TO.C,R17*%
X103505000Y-56515000D03*
X103505000Y-58515000D03*
%TD*%
D10*
%TO.C,R23*%
X91345000Y-74930000D03*
X93345000Y-74930000D03*
%TD*%
D11*
%TO.C,D14*%
X95740000Y-90805000D03*
X97790000Y-90805000D03*
%TD*%
D10*
%TO.C,R14*%
X123435000Y-90170000D03*
X125435000Y-90170000D03*
%TD*%
%TO.C,R8*%
X123165000Y-74930000D03*
X125165000Y-74930000D03*
%TD*%
%TO.C,R13*%
X127245000Y-87630000D03*
X129245000Y-87630000D03*
%TD*%
%TO.C,R32*%
X72660000Y-58420000D03*
X74660000Y-58420000D03*
%TD*%
D11*
%TO.C,D3*%
X95740000Y-55880000D03*
X97790000Y-55880000D03*
%TD*%
D10*
%TO.C,R12*%
X123165000Y-85090000D03*
X125165000Y-85090000D03*
%TD*%
D11*
%TO.C,D7*%
X95740000Y-68580000D03*
X97790000Y-68580000D03*
%TD*%
D19*
%TO.C,D1*%
X87630000Y-58420000D03*
X84830000Y-58420000D03*
%TD*%
D11*
%TO.C,D6*%
X95740000Y-65405000D03*
X97790000Y-65405000D03*
%TD*%
D18*
%TO.C,R15*%
X78740000Y-66675000D03*
X78740000Y-68675000D03*
%TD*%
M02*
