M48
; DRILL file {KiCad 8.0.2} date 2024-05-17T23:37:50+0200
; FORMAT={-:-/ absolute / inch / decimal}
; #@! TF.CreationDate,2024-05-17T23:37:50+02:00
; #@! TF.GenerationSoftware,Kicad,Pcbnew,8.0.2
; #@! TF.FileFunction,Plated,1,2,PTH
FMAT,2
INCH
; #@! TA.AperFunction,Plated,PTH,ViaDrill
T1C0.0118
; #@! TA.AperFunction,Plated,PTH,ViaDrill
T2C0.0236
; #@! TA.AperFunction,Plated,PTH,ComponentDrill
T3C0.0300
; #@! TA.AperFunction,Plated,PTH,ComponentDrill
T4C0.0394
%
G90
G05
T1
X1.75Y-2.225
X1.85Y-2.05
X2.025Y-2.3
X2.05Y-2.75
X2.175Y-2.25
X2.175Y-2.75
X2.375Y-2.2955
X2.475Y-3.0346
X2.4986Y-2.5236
X2.518Y-2.4986
X2.525Y-2.25
X2.525Y-2.45
X2.525Y-2.9205
X2.525Y-3.0
X2.55Y-2.35
X2.55Y-2.425
X2.6Y-1.475
X2.6Y-1.625
X2.65Y-2.225
X2.675Y-1.475
X2.725Y-2.225
X2.775Y-2.225
X2.8Y-2.45
X2.95Y-2.475
X3.05Y-2.225
X3.075Y-1.45
X3.075Y-2.25
X3.1Y-2.575
X3.15Y-1.475
X3.15Y-2.225
X3.2Y-1.475
X3.225Y-1.9
X3.25Y-2.025
X3.325Y-1.45
X3.325Y-2.225
X3.4Y-2.025
X3.45Y-2.375
X3.5Y-2.375
X3.525Y-2.325
X3.55Y-2.7
X3.575Y-2.225
X3.6458Y-2.3792
X3.7Y-1.375
X3.7Y-2.125
X3.8Y-2.275
X3.8Y-2.5
X3.85Y-3.0
X3.85Y-3.2638
X3.9Y-2.525
X3.9Y-2.65
X3.9Y-2.75
X3.9Y-3.2
X3.925Y-2.075
X3.925Y-2.25
X3.925Y-2.325
X3.9565Y-2.25
X3.9565Y-2.325
X3.975Y-1.525
X3.9801Y-2.575
X3.9875Y-2.8625
X4.0Y-3.075
X4.025Y-1.85
X4.025Y-2.4
X4.025Y-2.775
X4.025Y-2.85
X4.075Y-3.25
X4.1Y-2.375
X4.1Y-2.55
X4.1045Y-2.75
X4.1045Y-2.875
X4.125Y-1.85
X4.125Y-2.9
X4.125Y-3.225
X4.1377Y-2.8712
X4.15Y-2.75
X4.175Y-2.775
X4.175Y-2.85
X4.2Y-3.25
X4.25Y-2.85
X4.275Y-2.4
X4.275Y-2.725
X4.275Y-2.9
X4.3033Y-2.301
X4.325Y-2.575
X4.3416Y-2.3416
X4.375Y-2.5295
X4.4Y-2.2
X4.425Y-2.55
X4.525Y-3.525
X4.55Y-2.975
X4.825Y-2.8
X4.85Y-2.625
X4.85Y-2.825
X4.85Y-2.875
X4.875Y-2.425
X4.925Y-2.45
X4.925Y-2.65
X5.0Y-2.325
T2
X2.025Y-2.525
X2.1Y-3.0
X2.15Y-2.325
X2.425Y-2.5
X2.5Y-2.4
X2.95Y-2.025
X2.95Y-2.75
X3.15Y-2.35
X3.2Y-2.75
X3.3811Y-2.4
X3.5Y-2.625
X3.5126Y-2.425
X3.7Y-2.2
X4.0Y-2.15
X4.0Y-2.35
X4.0486Y-2.6986
X4.325Y-2.225
X4.35Y-2.7
X4.35Y-2.875
X4.4Y-3.0
X4.45Y-1.85
X4.55Y-1.75
X4.625Y-3.25
X4.65Y-3.0
X4.775Y-2.05
X4.95Y-1.875
T3
X1.9Y-2.4
X1.9Y-2.85
X1.9Y-3.1
X1.9Y-3.55
X2.0Y-2.4
X2.0Y-2.85
X2.0Y-3.1
X2.0Y-3.55
X2.1Y-2.4
X2.1Y-2.85
X2.1Y-3.1
X2.1Y-3.55
X2.2Y-2.4
X2.2Y-2.85
X2.2Y-3.1
X2.2Y-3.55
X2.3Y-2.4
X2.3Y-2.85
X2.3Y-3.1
X2.3Y-3.55
X2.4Y-2.4
X2.4Y-2.85
X2.4Y-3.1
X2.4Y-3.55
X4.15Y-3.125
X4.15Y-3.575
X4.2Y-2.2
X4.2Y-2.3
X4.2Y-2.4
X4.2Y-2.5
X4.2Y-2.6
X4.2Y-2.7
X4.25Y-3.125
X4.25Y-3.575
X4.35Y-3.125
X4.35Y-3.575
X4.45Y-3.125
X4.45Y-3.575
X4.55Y-3.125
X4.55Y-3.575
X4.65Y-2.2
X4.65Y-2.3
X4.65Y-2.4
X4.65Y-2.5
X4.65Y-2.6
X4.65Y-2.7
X4.65Y-3.125
X4.65Y-3.575
X4.75Y-1.425
X4.75Y-1.525
X4.75Y-1.625
X4.75Y-1.725
X4.75Y-1.825
X4.75Y-1.925
X5.2Y-1.425
X5.2Y-1.525
X5.2Y-1.625
X5.2Y-1.725
X5.2Y-1.825
X5.2Y-1.925
T4
X2.3626Y-1.773
X2.3626Y-1.873
X2.3626Y-1.973
X2.4256Y-1.773
X2.4256Y-1.873
X2.4256Y-1.973
X2.7Y-2.825
X2.8Y-2.825
X2.9Y-2.825
X3.0Y-2.825
X3.1Y-2.825
X3.1421Y-1.5886
X3.1421Y-1.6516
X3.2Y-2.825
X3.2406Y-1.5886
X3.2406Y-1.6516
X3.3Y-2.825
X3.339Y-1.5886
X3.339Y-1.6516
X3.4Y-2.825
X3.4768Y-1.75
X3.6067Y-1.7106
X3.6067Y-1.7894
X4.875Y-1.25
X4.8919Y-3.675
X5.0581Y-1.25
X5.075Y-3.675
X5.2278Y-2.25
X5.2278Y-2.35
X5.2278Y-2.45
X5.2278Y-2.55
X5.2278Y-2.65
X5.2278Y-2.75
X5.2278Y-2.85
X5.2278Y-2.95
X5.2278Y-3.05
X5.2278Y-3.15
X5.2278Y-3.25
X5.2278Y-3.35
X5.2278Y-3.45
X5.2278Y-3.55
M30
