%TF.GenerationSoftware,KiCad,Pcbnew,8.0.2*%
%TF.CreationDate,2024-05-17T23:09:10+02:00*%
%TF.ProjectId,pcb,7063622e-6b69-4636-9164-5f7063625858,rev?*%
%TF.SameCoordinates,Original*%
%TF.FileFunction,Soldermask,Bot*%
%TF.FilePolarity,Negative*%
%FSLAX46Y46*%
G04 Gerber Fmt 4.6, Leading zero omitted, Abs format (unit mm)*
G04 Created by KiCad (PCBNEW 8.0.2) date 2024-05-17 23:09:10*
%MOMM*%
%LPD*%
G01*
G04 APERTURE LIST*
G04 Aperture macros list*
%AMRoundRect*
0 Rectangle with rounded corners*
0 $1 Rounding radius*
0 $2 $3 $4 $5 $6 $7 $8 $9 X,Y pos of 4 corners*
0 Add a 4 corners polygon primitive as box body*
4,1,4,$2,$3,$4,$5,$6,$7,$8,$9,$2,$3,0*
0 Add four circle primitives for the rounded corners*
1,1,$1+$1,$2,$3*
1,1,$1+$1,$4,$5*
1,1,$1+$1,$6,$7*
1,1,$1+$1,$8,$9*
0 Add four rect primitives between the rounded corners*
20,1,$1+$1,$2,$3,$4,$5,0*
20,1,$1+$1,$4,$5,$6,$7,0*
20,1,$1+$1,$6,$7,$8,$9,0*
20,1,$1+$1,$8,$9,$2,$3,0*%
G04 Aperture macros list end*
%ADD10R,1.700000X1.700000*%
%ADD11C,1.524000*%
%ADD12C,1.600000*%
%ADD13RoundRect,0.800000X-0.000010X0.800000X-0.000010X-0.800000X0.000010X-0.800000X0.000010X0.800000X0*%
%ADD14RoundRect,0.800000X-0.800000X0.000010X-0.800000X-0.000010X0.800000X-0.000010X0.800000X0.000010X0*%
%ADD15C,3.800000*%
%ADD16C,1.500000*%
%ADD17C,1.850000*%
%ADD18O,1.700000X1.700000*%
G04 APERTURE END LIST*
D10*
%TO.C,J6*%
X128475000Y-31750000D03*
%TD*%
%TO.C,J5*%
X123825000Y-31750000D03*
%TD*%
%TO.C,J4*%
X124255000Y-93345000D03*
%TD*%
%TO.C,J3*%
X128905000Y-93345000D03*
%TD*%
D11*
%TO.C,U6*%
X118110000Y-55880000D03*
X118110000Y-58420000D03*
X118110000Y-60960000D03*
X118110000Y-63500000D03*
X118110000Y-66040000D03*
X118110000Y-68580000D03*
X106680000Y-68580000D03*
X106680000Y-66040000D03*
X106680000Y-63500000D03*
X106680000Y-60960000D03*
X106680000Y-58420000D03*
X106680000Y-55880000D03*
%TD*%
%TO.C,U5*%
X120650000Y-36195000D03*
X120650000Y-38735000D03*
X120650000Y-41275000D03*
X120650000Y-43815000D03*
X120650000Y-46355000D03*
X120650000Y-48895000D03*
X132080000Y-48895000D03*
X132080000Y-46355000D03*
X132080000Y-43815000D03*
X132080000Y-41275000D03*
X132080000Y-38735000D03*
X132080000Y-36195000D03*
%TD*%
%TO.C,U4*%
X48260000Y-90170000D03*
X50800000Y-90170000D03*
X53340000Y-90170000D03*
X55880000Y-90170000D03*
X58420000Y-90170000D03*
X60960000Y-90170000D03*
X60960000Y-78740000D03*
X58420000Y-78740000D03*
X55880000Y-78740000D03*
X53340000Y-78740000D03*
X50800000Y-78740000D03*
X48260000Y-78740000D03*
%TD*%
%TO.C,U3*%
X118110000Y-79375000D03*
X115570000Y-79375000D03*
X113030000Y-79375000D03*
X110490000Y-79375000D03*
X107950000Y-79375000D03*
X105410000Y-79375000D03*
X105410000Y-90805000D03*
X107950000Y-90805000D03*
X110490000Y-90805000D03*
X113030000Y-90805000D03*
X115570000Y-90805000D03*
X118110000Y-90805000D03*
%TD*%
%TO.C,U2*%
X60960000Y-60960000D03*
X58420000Y-60960000D03*
X55880000Y-60960000D03*
X53340000Y-60960000D03*
X50800000Y-60960000D03*
X48260000Y-60960000D03*
X48260000Y-72390000D03*
X50800000Y-72390000D03*
X53340000Y-72390000D03*
X55880000Y-72390000D03*
X58420000Y-72390000D03*
X60960000Y-72390000D03*
%TD*%
D12*
%TO.C,U1*%
X79810000Y-41950000D03*
D13*
X79810000Y-41150000D03*
D12*
X82310000Y-41950000D03*
D13*
X82310000Y-41150000D03*
D12*
X84810000Y-41950000D03*
D13*
X84810000Y-41150000D03*
D12*
X91610000Y-43450000D03*
X91610000Y-45450000D03*
X88310000Y-44450000D03*
D14*
X60810000Y-50114100D03*
D12*
X61610000Y-50114100D03*
D14*
X60810000Y-47574100D03*
D12*
X61610000Y-47574100D03*
D14*
X60810000Y-45034100D03*
D12*
X61610000Y-45034100D03*
D15*
X90810000Y-50150000D03*
D16*
X90960000Y-47175000D03*
D17*
X88280000Y-46875000D03*
X88280000Y-42025000D03*
D16*
X90960000Y-41725000D03*
D15*
X90810000Y-38750000D03*
%TD*%
D10*
%TO.C,J1*%
X86360000Y-71755000D03*
D18*
X83820000Y-71755000D03*
X81280000Y-71755000D03*
X78740000Y-71755000D03*
X76200000Y-71755000D03*
X73660000Y-71755000D03*
X71120000Y-71755000D03*
X68580000Y-71755000D03*
%TD*%
D10*
%TO.C,J2*%
X132785000Y-57150000D03*
D18*
X132785000Y-59690000D03*
X132785000Y-62230000D03*
X132785000Y-64770000D03*
X132785000Y-67310000D03*
X132785000Y-69850000D03*
X132785000Y-72390000D03*
X132785000Y-74930000D03*
X132785000Y-77470000D03*
X132785000Y-80010000D03*
X132785000Y-82550000D03*
X132785000Y-85090000D03*
X132785000Y-87630000D03*
X132785000Y-90170000D03*
%TD*%
M02*
