%TF.GenerationSoftware,KiCad,Pcbnew,8.0.2*%
%TF.CreationDate,2024-05-17T23:09:10+02:00*%
%TF.ProjectId,pcb,7063622e-6b69-4636-9164-5f7063625858,rev?*%
%TF.SameCoordinates,Original*%
%TF.FileFunction,Profile,NP*%
%FSLAX46Y46*%
G04 Gerber Fmt 4.6, Leading zero omitted, Abs format (unit mm)*
G04 Created by KiCad (PCBNEW 8.0.2) date 2024-05-17 23:09:10*
%MOMM*%
%LPD*%
G01*
G04 APERTURE LIST*
%TA.AperFunction,Profile*%
%ADD10C,0.050000*%
%TD*%
%TA.AperFunction,Profile*%
%ADD11C,0.500000*%
%TD*%
G04 APERTURE END LIST*
D10*
X38100000Y-29210000D02*
X137160000Y-29210000D01*
X137160000Y-96520000D01*
X38100000Y-96520000D01*
X38100000Y-29210000D01*
D11*
%TO.C,U1*%
X91299213Y-48175000D02*
G75*
G02*
X90592106Y-46467893I-69J999972D01*
G01*
X90592106Y-42432107D02*
G75*
G02*
X91299213Y-40725000I706998J707152D01*
G01*
X88310000Y-45950000D02*
G75*
G02*
X87310000Y-46950000I-1000000J0D01*
G01*
X87310000Y-41950000D02*
G75*
G02*
X88310000Y-42950000I38J-999962D01*
G01*
X79010000Y-46950000D02*
G75*
G02*
X78010000Y-45950000I40J1000040D01*
G01*
X78010000Y-42950000D02*
G75*
G02*
X79010000Y-41950000I999989J11D01*
G01*
X66610000Y-50914100D02*
G75*
G02*
X65610000Y-51914100I-1000000J0D01*
G01*
X65610000Y-43234100D02*
G75*
G02*
X66610000Y-44234100I1J-999999D01*
G01*
X62610000Y-51914100D02*
G75*
G02*
X61610000Y-50914100I0J1000000D01*
G01*
X61610000Y-44234100D02*
G75*
G02*
X62610000Y-43234100I999999J1D01*
G01*
X92352462Y-44707537D02*
X92352462Y-44192463D01*
X91299213Y-48175000D02*
X92810000Y-48175000D01*
X91299213Y-40725000D02*
X92810000Y-40725000D01*
X90592106Y-46467893D02*
X92352462Y-44707537D01*
X90592106Y-42432107D02*
X92352462Y-44192463D01*
X88310000Y-45950000D02*
X88310000Y-42950000D01*
X87310000Y-41950000D02*
X79010000Y-41950000D01*
X79010000Y-46950000D02*
X87310000Y-46950000D01*
X78010000Y-45950000D02*
X78010000Y-42950000D01*
X66610000Y-50914100D02*
X66610000Y-44234100D01*
X65610000Y-51914100D02*
X62610000Y-51914100D01*
X62610000Y-43234100D02*
X65610000Y-43234100D01*
X61610000Y-44234100D02*
X61610000Y-50914100D01*
%TD*%
M02*
